<?xml version="1.0" encoding="utf-8"?>
<!-- Generator: Adobe Illustrator 21.1.0, SVG Export Plug-In . SVG Version: 6.00 Build 0)  -->
<svg version="1.1" id="Layer_1" xmlns="http://www.w3.org/2000/svg" xmlns:xlink="http://www.w3.org/1999/xlink" x="0px" y="0px"
	 viewBox="0 0 2500 2500" style="enable-background:new 0 0 2500 2500;" xml:space="preserve">
<style type="text/css">
	.st0{fill:url(#SVGID_1_);}
</style>
<g transform="matrix(0.574261,0,0,0.574261,-5093.04,-3771.67)">
	
		<linearGradient id="SVGID_1_" gradientUnits="userSpaceOnUse" x1="8869.1475" y1="10920.7178" x2="8869.8154" y2="10920.7178" gradientTransform="matrix(10.3361 -1505.4625 -1533.0817 -10.1499 16661720 13472631)">
		<stop  offset="0" style="stop-color:#9FAFFF"/>
		<stop  offset="1" style="stop-color:#00DFEF"/>
	</linearGradient>
	<path class="st0" d="M10402.2,7911.3c20.3-20.3,53.2-20.3,73.5,0c125.8,125.8,538.3,538.3,664.1,664.1c20.3,20.3,53.2,20.3,73.5,0
		c102.4-102.4,390.1-390.1,492.5-492.5c9.8-9.8,23-15.2,36.8-15.2c13.8,0,27,5.4,36.7,15.2c131,131,574.6,574.6,705.6,705.6
		c20.3,20.3,20.3,53.2,0,73.5c-131.6,131.5-578.3,578.3-709.9,709.8c-20.3,20.3-53.2,20.3-73.5,0L10693,8563.4
		c-20.3-20.3-53.2-20.3-73.5,0c-40.1,40.1-103.8,103.8-143.9,143.9c-20.3,20.3-20.3,53.2,0,73.5c40.1,40.1,103.8,103.8,143.9,143.9
		c9.8,9.8,23,15.2,36.8,15.2c13.8,0,27-5.4,36.7-15.2c11.8-11.8,24.9-24.9,36.7-36.7c9.7-9.7,23-15.2,36.7-15.2
		c13.8,0,27,5.5,36.8,15.2c40.1,40.1,103.9,103.9,144,144c20.2,20.2,20.3,53.1,0.1,73.4c-99,99.4-371.2,372.8-470.4,472.4
		c-9.8,9.8-23,15.3-36.8,15.3s-27-5.4-36.8-15.2c-142.2-142.2-654.9-654.9-797-797c-20.3-20.3-20.3-53.2,0-73.5
		C9748.3,8565.3,10260.2,8053.3,10402.2,7911.3z M11628.9,8662c-9-9-21.2-14.1-34-14.1c-12.7,0-24.9,5-33.9,14.1
		c-36.8,36.8-95.3,95.3-132.1,132.1c-9,9-14.1,21.2-14.1,34c0,12.7,5.1,24.9,14.1,33.9c36.8,36.8,95.3,95.3,132.1,132.1
		c9,9,21.2,14.1,33.9,14.1c12.8,0,25-5,34-14.1c36.8-36.8,95.3-95.3,132.1-132.1c9-9,14.1-21.2,14.1-33.9c0-12.7-5.1-25-14.1-34
		C11724.2,8757.2,11665.8,8698.8,11628.9,8662z"/>
</g>
</svg>
