<?xml version="1.0" encoding="UTF-8" standalone="no"?>
<!DOCTYPE svg PUBLIC "-//W3C//DTD SVG 1.1//EN" "http://www.w3.org/Graphics/SVG/1.1/DTD/svg11.dtd">
<svg width="100%" height="100%" viewBox="0 0 500 500" version="1.1" xmlns="http://www.w3.org/2000/svg" xmlns:xlink="http://www.w3.org/1999/xlink" xml:space="preserve" style="fill-rule:evenodd;clip-rule:evenodd;stroke-linejoin:round;stroke-miterlimit:1.41421;">
    <g transform="matrix(0.574261,0,0,0.574261,-5093.04,-3771.67)">
        <path d="M9111.64,6753.82C9117.71,6747.75 9127.56,6747.75 9133.63,6753.82C9171.28,6791.47 9294.76,6914.95 9332.41,6952.6C9338.48,6958.67 9348.33,6958.67 9354.4,6952.6C9385.04,6921.96 9471.16,6835.84 9501.81,6805.19C9504.73,6802.27 9508.68,6800.64 9512.81,6800.64C9516.93,6800.64 9520.89,6802.27 9523.8,6805.19C9563.02,6844.41 9695.77,6977.16 9734.99,7016.38C9741.06,7022.45 9741.06,7032.3 9734.99,7038.37C9695.61,7077.74 9561.9,7211.46 9522.52,7250.83C9516.45,7256.91 9506.6,7256.91 9500.53,7250.83L9198.68,6948.98C9192.61,6942.91 9182.76,6942.91 9176.69,6948.98C9164.7,6960.98 9145.62,6980.06 9133.63,6992.05C9127.56,6998.12 9127.56,7007.97 9133.63,7014.04C9145.62,7026.03 9164.7,7045.11 9176.69,7057.1C9179.61,7060.02 9183.56,7061.65 9187.69,7061.65C9191.81,7061.65 9195.77,7060.02 9198.68,7057.1C9202.21,7053.57 9206.13,7049.66 9209.66,7046.12C9212.57,7043.21 9216.53,7041.57 9220.65,7041.57C9224.78,7041.57 9228.73,7043.21 9231.65,7046.12C9243.65,7058.12 9262.75,7077.22 9274.74,7089.21C9280.8,7095.27 9280.81,7105.1 9274.76,7111.18C9245.14,7140.93 9163.65,7222.76 9133.98,7252.56C9131.06,7255.49 9127.1,7257.14 9122.97,7257.14C9118.84,7257.14 9114.88,7255.51 9111.96,7252.59C9069.39,7210.02 8915.94,7056.57 8873.41,7014.04C8867.34,7007.97 8867.34,6998.12 8873.41,6992.05C8915.91,6949.55 9069.14,6796.32 9111.64,6753.82ZM9478.81,6978.49C9476.11,6975.79 9472.46,6974.28 9468.64,6974.28C9464.83,6974.28 9461.18,6975.79 9458.48,6978.49C9447.46,6989.51 9429.97,7007 9418.94,7018.02C9416.25,7020.72 9414.73,7024.38 9414.73,7028.19C9414.73,7032 9416.25,7035.65 9418.94,7038.35C9429.97,7049.37 9447.46,7066.87 9458.48,7077.89C9461.18,7080.59 9464.83,7082.1 9468.64,7082.1C9472.46,7082.1 9476.11,7080.59 9478.81,7077.89C9489.83,7066.87 9507.32,7049.37 9518.35,7038.35C9521.04,7035.65 9522.56,7032 9522.56,7028.19C9522.56,7024.38 9521.04,7020.72 9518.35,7018.02C9507.32,7007 9489.83,6989.51 9478.81,6978.49Z" style="fill:url(#_Linear1);"/>
    </g>
    <defs>
        <linearGradient id="_Linear1" x1="0" y1="0" x2="1" y2="0" gradientUnits="userSpaceOnUse" gradientTransform="matrix(3.5998,-524.313,533.932,3.53495,9127.58,7263.29)"><stop offset="0" style="stop-color:rgb(159,175,255);stop-opacity:1"/><stop offset="0" style="stop-color:rgb(0,223,239);stop-opacity:1"/></linearGradient>
    </defs>
</svg>
