<?xml version="1.0" encoding="UTF-8" standalone="no"?>
<!DOCTYPE svg PUBLIC "-//W3C//DTD SVG 1.1//EN" "http://www.w3.org/Graphics/SVG/1.1/DTD/svg11.dtd">
<svg width="100%" height="100%" viewBox="0 0 3100 1076" version="1.1" xmlns="http://www.w3.org/2000/svg" xmlns:xlink="http://www.w3.org/1999/xlink" xml:space="preserve" style="fill-rule:evenodd;clip-rule:evenodd;stroke-linejoin:round;stroke-miterlimit:1.41421;">
    <g transform="matrix(1,0,0,1,-24022.1,-32211.3)">
        <g transform="matrix(1.16112,0,0,1.84231,5459.84,10895)">
            <g transform="matrix(0.861237,0,0,0.542798,-4193.97,-6290.1)">
                <rect x="23432" y="32904.6" width="3099.64" height="1075.42" style="fill:rgb(0,147,229);"/>
            </g>
            <g transform="matrix(0.861237,0,0,0.542798,-4215.1,-6289.42)">
                <path d="M23911.7,33243.9C23949.6,33243.9 23979.6,33251.6 24001.5,33267C24023.4,33282.3 24034.4,33303.3 24034.4,33329.8C24034.4,33348.1 24029.1,33364.1 24018.4,33377.7C24007.8,33391.2 23993.3,33400.5 23975,33405.4C23997.2,33409.7 24014.8,33419.6 24027.5,33435.1C24040.3,33450.6 24046.7,33469.7 24046.7,33492.3C24046.7,33521.7 24035,33545 24011.8,33562C23988.6,33579 23957,33587.5 23917.1,33587.5L23753.6,33587.5L23753.6,33243.9L23911.7,33243.9ZM23907.7,33382.3C23922.5,33382.3 23934,33379 23942.3,33372.3C23950.7,33365.6 23954.9,33356.1 23954.9,33344C23954.9,33332.3 23950.7,33323.1 23942.3,33316.5C23934,33310 23922.5,33306.9 23907.7,33307.2L23831.2,33307.2L23831.2,33382.3L23907.7,33382.3ZM23907.7,33524.2C23926.1,33524.2 23940.5,33520.5 23950.9,33513.1C23961.4,33505.8 23966.6,33495.6 23966.6,33482.5C23966.6,33470 23961.4,33460.2 23950.9,33453C23940.5,33445.8 23926.1,33442.4 23907.7,33442.7L23831.2,33442.7L23831.2,33524.2L23907.7,33524.2Z" style="fill:white;fill-rule:nonzero;"/>
                <path d="M24384.9,33323.4L24384.9,33587.5L24309.8,33587.5L24309.8,33540.9C24291.8,33573.9 24262.3,33590.5 24221.4,33590.5C24192.3,33590.5 24169.1,33581.4 24152,33563.2C24134.8,33545.1 24126.2,33520.4 24126.2,33489.3L24126.2,33323.4L24201.8,33323.4L24201.8,33467.7C24201.8,33484.4 24206.2,33497.5 24215,33507C24223.9,33516.5 24236,33521.2 24251.4,33521.2C24269.4,33520.9 24283.6,33514.5 24294.1,33502.1C24304.5,33489.7 24309.8,33473.6 24309.8,33454L24309.8,33323.4L24384.9,33323.4Z" style="fill:white;fill-rule:nonzero;"/>
                <path d="M24618.5,33617C24600.2,33663.1 24568,33686.2 24521.8,33686.2C24507.8,33686.2 24495,33684.1 24483.6,33680.1C24472.1,33676 24461,33669.5 24450.2,33660.7L24482.1,33606.2C24493.5,33615.7 24505,33620.4 24516.4,33620.4C24532.5,33620.4 24544.1,33612.6 24551.3,33596.8L24558.7,33582.1L24449.2,33323.4L24527.2,33323.4L24596.5,33505.1L24658.8,33323.4L24734.4,33323.4L24618.5,33617Z" style="fill:white;fill-rule:nonzero;"/>
                <path d="M25186,33243.9L25259.6,33243.9L25259.6,33587.5L25189,33587.5L25022.5,33366.6L25022.5,33587.5L24948.4,33587.5L24948.4,33243.9L25019.1,33243.9L25186,33465.8L25186,33243.9Z" style="fill:white;fill-rule:nonzero;"/>
                <path d="M25485.5,33321C25513.3,33321 25537.9,33326.5 25559.3,33337.7C25580.8,33348.8 25597.4,33364.5 25609.2,33384.8C25620.9,33405.1 25626.8,33428.6 25626.8,33455.5C25626.8,33482 25620.9,33505.5 25609.2,33525.9C25597.4,33546.4 25580.8,33562.2 25559.3,33573.5C25537.9,33584.8 25513.3,33590.5 25485.5,33590.5C25457.3,33590.5 25432.5,33584.8 25411.1,33573.5C25389.7,33562.2 25373,33546.4 25361.3,33525.9C25349.5,33505.5 25343.6,33482 25343.6,33455.5C25343.6,33428.6 25349.5,33405.1 25361.3,33384.8C25373,33364.5 25389.7,33348.8 25411.1,33337.7C25432.5,33326.5 25457.3,33321 25485.5,33321ZM25485.5,33383.8C25465.8,33383.8 25449.9,33390.5 25437.6,33403.9C25425.3,33417.3 25419.2,33434.9 25419.2,33456.5C25419.2,33478.1 25425.3,33495.6 25437.6,33509C25449.9,33522.4 25465.8,33529.1 25485.5,33529.1C25504.8,33529.1 25520.6,33522.4 25532.8,33509C25545.1,33495.6 25551.2,33478.1 25551.2,33456.5C25551.2,33434.9 25545.1,33417.3 25532.8,33403.9C25520.6,33390.5 25504.8,33383.8 25485.5,33383.8Z" style="fill:white;fill-rule:nonzero;"/>
                <path d="M25671.5,33323.9L25748.6,33323.4L25807.5,33512.4L25864.4,33323.4L25938.5,33323.4L25996.5,33512.4L26054.4,33323.4L26129,33323.4L26032.8,33587.5L25957.2,33587.5L25900.3,33413.3L25843.8,33587.5L25768.2,33587.5L25671.5,33323.9Z" style="fill:white;fill-rule:nonzero;"/>
                <path d="M26186,33246.4L26258.1,33246.4L26258.1,33333.2L26244.9,33471.7L26199.2,33471.7L26186,33333.2L26186,33246.4ZM26221.3,33513.9C26232.4,33513.9 26241.5,33517.5 26248.5,33524.7C26255.6,33531.9 26259.1,33541.2 26259.1,33552.7C26259.1,33564.1 26255.6,33573.5 26248.5,33580.9C26241.5,33588.3 26232.4,33591.9 26221.3,33591.9C26210.5,33591.9 26201.5,33588.2 26194.3,33580.6C26187.1,33573.1 26183.5,33563.8 26183.5,33552.7C26183.5,33541.2 26187.1,33531.9 26194.3,33524.7C26201.5,33517.5 26210.5,33513.9 26221.3,33513.9Z" style="fill:white;fill-rule:nonzero;"/>
            </g>
        </g>
    </g>
</svg>