<?xml version="1.0" encoding="UTF-8" standalone="no"?>
<!DOCTYPE svg PUBLIC "-//W3C//DTD SVG 1.1//EN" "http://www.w3.org/Graphics/SVG/1.1/DTD/svg11.dtd">
<svg width="100%" height="100%" viewBox="0 0 10000 6674" version="1.1" xmlns="http://www.w3.org/2000/svg" xmlns:xlink="http://www.w3.org/1999/xlink" xml:space="preserve" style="fill-rule:evenodd;clip-rule:evenodd;stroke-linejoin:round;stroke-miterlimit:1.41421;">
    <g transform="matrix(1,0,0,1,-14257.7,-1000)">
        <g transform="matrix(1.16112,0,0,1.84231,-2297.21,0)">
            <g transform="matrix(1,0,0,0.630254,-1.81899e-11,-325.269)">
                <g transform="matrix(0.998641,0,0,1,19.3691,0)">
                    <rect x="14257.7" y="1377.33" width="8624.08" height="5747.42" style="fill:rgb(42,27,111);"/>
                </g>
                <path d="M14257.7,6517.77L14965.8,6707.53C15007.4,6718.67 15032.1,6761.42 15021,6803.02L14934.8,7124.75L14257.7,7124.75L14257.7,6517.77ZM15032,7124.75L15193.6,6521.72C15198.9,6501.74 15212,6484.72 15229.9,6474.38C15247.8,6464.04 15269.1,6461.24 15289.1,6466.59C15482.5,6518.4 15994.9,6655.71 16188.3,6707.53C16229.9,6718.67 16254.5,6761.42 16243.4,6803.02L16157.2,7124.75L15032,7124.75ZM16254.4,7124.75L16416,6521.72C16421.4,6501.74 16434.4,6484.72 16452.3,6474.38C16470.2,6464.04 16491.5,6461.24 16511.5,6466.59C16704.9,6518.4 17217.3,6655.71 17410.7,6707.53C17452.3,6718.67 17477,6761.42 17465.8,6803.02L17379.6,7124.75L16254.4,7124.75ZM17476.9,7124.75L17638.4,6521.72C17643.8,6501.74 17656.9,6484.72 17674.8,6474.38C17692.7,6464.04 17714,6461.24 17733.9,6466.59C17927.3,6518.4 18439.7,6655.71 18633.1,6707.53C18674.7,6718.67 18699.4,6761.42 18688.3,6803.02L18602,7124.75L17476.9,7124.75ZM18699.3,7124.75L18860.9,6521.72C18866.2,6501.74 18879.3,6484.72 18897.2,6474.38C18915.1,6464.04 18936.4,6461.24 18956.4,6466.59C19149.7,6518.4 19662.2,6655.71 19855.5,6707.53C19897.1,6718.67 19921.8,6761.42 19910.7,6803.02L19824.5,7124.75L18699.3,7124.75ZM19921.7,7124.75L20083.3,6521.72C20088.6,6501.74 20101.7,6484.72 20119.6,6474.38C20137.5,6464.04 20158.8,6461.24 20178.8,6466.59C20372.2,6518.4 20884.6,6655.71 21078,6707.53C21119.6,6718.67 21144.3,6761.42 21133.1,6803.02L21046.9,7124.75L19921.7,7124.75ZM21144.1,7124.75L21305.7,6521.72C21311.1,6501.74 21324.1,6484.72 21342,6474.38C21360,6464.04 21381.2,6461.24 21401.2,6466.59C21594.6,6518.4 22107,6655.71 22300.4,6707.53C22342,6718.67 22366.7,6761.42 22355.5,6803.02L22269.3,7124.75L21144.1,7124.75ZM22366.6,7124.75L22528.1,6521.72C22533.5,6501.74 22546.6,6484.72 22564.5,6474.38C22582.4,6464.04 22603.7,6461.24 22623.6,6466.59L22870,6532.61L22870,7124.75L22366.6,7124.75ZM14257.7,4473.04L14706.5,4593.29C14748,4604.44 14772.7,4647.19 14761.6,4688.79C14716.6,4856.83 14608.3,5260.8 14563.3,5428.84C14552.1,5470.44 14576.8,5513.19 14618.4,5524.34C14749.9,5559.56 15019.8,5631.88 15151.2,5667.1C15192.8,5678.25 15217.5,5721 15206.4,5762.6C15159.1,5938.84 15041.9,6376.47 14994.7,6552.71C14983.5,6594.31 14940.8,6618.99 14899.2,6607.85L14257.7,6435.95L14257.7,5519.65L14358.5,5143.37C14369.6,5101.78 14344.9,5059.02 14303.3,5047.88L14257.7,5035.64L14257.7,4473.04ZM18373.7,4593.29C18415.3,4604.44 18440,4647.19 18428.9,4688.79C18383.8,4856.83 18275.6,5260.8 18230.6,5428.84C18219.4,5470.44 18244.1,5513.19 18285.7,5524.34C18417.2,5559.56 18687,5631.88 18818.5,5667.1C18860.1,5678.25 18884.8,5721 18873.6,5762.6C18826.4,5938.84 18709.2,6376.47 18661.9,6552.71C18650.8,6594.31 18608,6618.99 18566.4,6607.85C18389.4,6560.4 17948.2,6442.2 17771.2,6394.75C17729.6,6383.61 17704.9,6340.85 17716,6299.26L18025.8,5143.37C18036.9,5101.78 18012.2,5059.02 17970.6,5047.88C17935.5,5038.48 17893.9,5027.32 17858.8,5017.91C17817.2,5006.77 17774.5,5031.45 17763.3,5073.05C17753.1,5111.13 17740.8,5156.93 17731,5193.69C17726.3,5211.33 17728.7,5230.12 17737.9,5245.93C17747,5261.74 17762,5273.28 17779.7,5278.01C17779.7,5278.01 17779.7,5278.01 17779.7,5278.01C17797.3,5282.73 17812.3,5294.27 17821.5,5310.09C17830.6,5325.9 17833.1,5344.69 17828.3,5362.33C17818.5,5399.14 17806.2,5445.02 17796,5483.13C17784.9,5524.66 17742.2,5549.35 17700.6,5538.31C17574.1,5504.68 17319.9,5437.14 17193.1,5403.46C17173.1,5398.14 17156,5385.08 17145.6,5367.16C17135.2,5349.24 17132.4,5327.92 17137.8,5307.92C17189.7,5114.19 17327.2,4601.04 17379,4407.49C17384.4,4387.52 17397.5,4370.48 17415.4,4360.15C17433.3,4349.81 17454.6,4347 17474.5,4352.36C17667.9,4404.18 18180.3,4541.48 18373.7,4593.29ZM22041,4593.29C22082.6,4604.44 22107.3,4647.19 22096.1,4688.79C22051.1,4856.83 21942.9,5260.8 21897.8,5428.84C21886.7,5470.44 21911.4,5513.19 21953,5524.34C22084.5,5559.56 22354.3,5631.88 22485.8,5667.1C22527.4,5678.25 22552.1,5721 22540.9,5762.6C22493.7,5938.84 22376.4,6376.47 22329.2,6552.71C22318.1,6594.31 22275.3,6618.99 22233.7,6607.85C22056.7,6560.4 21615.5,6442.2 21438.5,6394.75C21396.9,6383.61 21372.2,6340.85 21383.3,6299.26L21693,5143.37C21704.2,5101.78 21679.5,5059.02 21637.9,5047.88C21602.8,5038.48 21561.2,5027.32 21526.1,5017.91C21484.5,5006.77 21441.7,5031.45 21430.6,5073.05C21420.4,5111.13 21408.1,5156.93 21398.3,5193.69C21393.5,5211.33 21396,5230.12 21405.1,5245.93C21414.3,5261.74 21429.3,5273.28 21446.9,5278.01C21446.9,5278.01 21446.9,5278.01 21447,5278.01C21464.6,5282.73 21479.6,5294.27 21488.8,5310.09C21497.9,5325.9 21500.4,5344.69 21495.6,5362.33C21485.8,5399.14 21473.5,5445.02 21463.3,5483.13C21452.1,5524.66 21409.5,5549.35 21367.9,5538.31C21241.3,5504.68 20987.1,5437.14 20860.4,5403.46C20840.3,5398.14 20823.3,5385.08 20812.9,5367.16C20802.5,5349.24 20799.7,5327.92 20805.1,5307.92C20857,5114.19 20994.5,4601.04 21046.3,4407.49C21051.7,4387.52 21064.7,4370.48 21082.7,4360.15C21100.6,4349.81 21121.8,4347 21141.8,4352.36C21335.2,4404.18 21847.6,4541.48 22041,4593.29ZM19596.2,4593.29C19637.8,4604.44 19662.4,4647.19 19651.3,4688.79C19606.3,4856.83 19498,5260.8 19453,5428.84C19441.9,5470.44 19466.5,5513.19 19508.1,5524.34C19639.6,5559.56 19909.5,5631.88 20040.9,5667.1C20082.5,5678.25 20107.2,5721 20096.1,5762.6C20048.9,5938.84 19931.6,6376.47 19884.4,6552.71C19873.2,6594.31 19830.5,6618.99 19788.9,6607.85C19611.8,6560.4 19170.7,6442.2 18993.6,6394.75C18952,6383.61 18927.3,6340.85 18938.5,6299.26L19248.2,5143.37C19259.3,5101.78 19234.7,5059.02 19193.1,5047.88C19158,5038.48 19116.3,5027.32 19081.2,5017.91C19039.6,5006.77 18996.9,5031.45 18985.7,5073.05C18975.5,5111.13 18963.3,5156.93 18953.4,5193.69C18948.7,5211.33 18951.2,5230.12 18960.3,5245.93C18969.4,5261.74 18984.5,5273.28 19002.1,5278.01C19002.1,5278.01 19002.1,5278.01 19002.1,5278.01C19019.7,5282.73 19034.8,5294.27 19043.9,5310.09C19053,5325.9 19055.5,5344.69 19050.8,5362.33C19040.9,5399.14 19028.6,5445.02 19018.4,5483.13C19007.3,5524.66 18964.6,5549.35 18923.1,5538.31C18796.5,5504.68 18542.3,5437.14 18415.5,5403.46C18395.5,5398.14 18378.4,5385.08 18368,5367.16C18357.7,5349.24 18354.8,5327.92 18360.2,5307.92C18412.1,5114.19 18549.6,4601.04 18601.5,4407.49C18606.8,4387.52 18619.9,4370.48 18637.8,4360.15C18655.7,4349.81 18677,4347 18697,4352.36C18890.4,4404.18 19402.8,4541.48 19596.2,4593.29ZM20818.6,4593.29C20860.2,4604.44 20884.9,4647.19 20873.7,4688.79C20828.7,4856.83 20720.5,5260.8 20675.4,5428.84C20664.3,5470.44 20689,5513.19 20730.6,5524.34C20862,5559.56 21131.9,5631.88 21263.4,5667.1C21305,5678.25 21329.6,5721 21318.5,5762.6C21271.3,5938.84 21154,6376.47 21106.8,6552.71C21095.6,6594.31 21052.9,6618.99 21011.3,6607.85C20834.2,6560.4 20393.1,6442.2 20216,6394.75C20174.4,6383.61 20149.8,6340.85 20160.9,6299.26L20470.6,5143.37C20481.8,5101.78 20457.1,5059.02 20415.5,5047.88C20380.4,5038.48 20338.7,5027.32 20303.7,5017.91C20262.1,5006.77 20219.3,5031.45 20208.2,5073.05C20198,5111.13 20185.7,5156.93 20175.8,5193.69C20171.1,5211.33 20173.6,5230.12 20182.7,5245.93C20191.8,5261.74 20206.9,5273.28 20224.5,5278.01C20224.5,5278.01 20224.5,5278.01 20224.5,5278.01C20242.2,5282.73 20257.2,5294.27 20266.3,5310.09C20275.5,5325.9 20277.9,5344.69 20273.2,5362.33C20263.3,5399.14 20251,5445.02 20240.8,5483.13C20229.7,5524.66 20187.1,5549.35 20145.5,5538.31C20018.9,5504.68 19764.7,5437.14 19637.9,5403.46C19617.9,5398.14 19600.8,5385.08 19590.5,5367.16C19580.1,5349.24 19577.3,5327.92 19582.6,5307.92C19634.5,5114.19 19772,4601.04 19823.9,4407.49C19829.3,4387.52 19842.3,4370.48 19860.2,4360.15C19878.1,4349.81 19899.4,4347 19919.4,4352.36C20112.8,4404.18 20625.2,4541.48 20818.6,4593.29ZM17151.3,4593.29C17192.9,4604.44 17217.6,4647.19 17206.4,4688.79C17161.4,4856.83 17053.2,5260.8 17008.1,5428.84C16997,5470.44 17021.7,5513.19 17063.3,5524.34C17194.7,5559.56 17464.6,5631.88 17596.1,5667.1C17637.7,5678.25 17662.4,5721 17651.2,5762.6C17604,5938.84 17486.7,6376.47 17439.5,6552.71C17428.4,6594.31 17385.6,6618.99 17344,6607.85C17166.9,6560.4 16725.8,6442.2 16548.7,6394.75C16507.2,6383.61 16482.5,6340.85 16493.6,6299.26L16803.3,5143.37C16814.5,5101.78 16789.8,5059.02 16748.2,5047.88C16713.1,5038.48 16671.5,5027.32 16636.4,5017.91C16594.8,5006.77 16552,5031.45 16540.9,5073.05C16530.7,5111.13 16518.4,5156.93 16508.6,5193.69C16503.8,5211.33 16506.3,5230.12 16515.4,5245.93C16524.6,5261.74 16539.6,5273.28 16557.2,5278.01C16557.2,5278.01 16557.2,5278.01 16557.2,5278.01C16574.9,5282.73 16589.9,5294.27 16599,5310.09C16608.2,5325.9 16610.6,5344.69 16605.9,5362.33C16596.1,5399.14 16583.8,5445.02 16573.6,5483.13C16562.4,5524.66 16519.8,5549.35 16478.2,5538.31C16351.6,5504.68 16097.4,5437.14 15970.6,5403.46C15950.6,5398.14 15933.6,5385.08 15923.2,5367.16C15912.8,5349.24 15910,5327.92 15915.4,5307.92C15967.3,5114.19 16104.8,4601.04 16156.6,4407.49C16162,4387.52 16175,4370.48 16192.9,4360.15C16210.9,4349.81 16232.1,4347 16252.1,4352.36C16445.5,4404.18 16957.9,4541.48 17151.3,4593.29ZM15928.9,4593.29C15970.5,4604.44 15995.2,4647.19 15984,4688.79C15939,4856.83 15830.7,5260.8 15785.7,5428.84C15774.6,5470.44 15799.3,5513.19 15840.8,5524.34C15972.3,5559.56 16242.2,5631.88 16373.7,5667.1C16415.3,5678.25 16439.9,5721 16428.8,5762.6C16381.6,5938.84 16264.3,6376.47 16217.1,6552.71C16205.9,6594.31 16163.2,6618.99 16121.6,6607.85C15944.5,6560.4 15503.4,6442.2 15326.3,6394.75C15284.7,6383.61 15260,6340.85 15271.2,6299.26L15580.9,5143.37C15592.1,5101.78 15567.4,5059.02 15525.8,5047.88C15490.7,5038.48 15449,5027.32 15413.9,5017.91C15372.4,5006.77 15329.6,5031.45 15318.5,5073.05C15308.2,5111.13 15296,5156.93 15286.1,5193.69C15281.4,5211.33 15283.9,5230.12 15293,5245.93C15302.1,5261.74 15317.2,5273.28 15334.8,5278.01C15334.8,5278.01 15334.8,5278.01 15334.8,5278.01C15352.5,5282.73 15367.5,5294.27 15376.6,5310.09C15385.7,5325.9 15388.2,5344.69 15383.5,5362.33C15373.6,5399.14 15361.3,5445.02 15351.1,5483.13C15340,5524.66 15297.3,5549.35 15255.8,5538.31C15129.2,5504.68 14875,5437.14 14748.2,5403.46C14728.2,5398.14 14711.1,5385.08 14700.8,5367.16C14690.4,5349.24 14687.6,5327.92 14692.9,5307.92C14744.8,5114.19 14882.3,4601.04 14934.2,4407.49C14939.5,4387.52 14952.6,4370.48 14970.5,4360.15C14988.4,4349.81 15009.7,4347 15029.7,4352.36C15223.1,4404.18 15735.5,4541.48 15928.9,4593.29ZM22870,5312.98L22870,6450.79L22660.9,6394.75C22619.3,6383.61 22594.6,6340.85 22605.8,6299.26L22870,5312.98ZM22031.9,5901.07C22036.8,5882.61 22034.2,5862.94 22024.7,5846.39C22015.1,5829.84 21999.4,5817.76 21980.9,5812.81C21948.8,5804.2 21910.7,5794.01 21878.6,5785.4C21860.2,5780.45 21840.5,5783.04 21823.9,5792.6C21807.4,5802.16 21795.3,5817.9 21790.4,5836.36C21781.7,5868.48 21771.5,5906.54 21762.9,5938.66C21758,5957.12 21760.6,5976.79 21770.1,5993.35C21779.7,6009.9 21795.4,6021.98 21813.9,6026.92C21846,6035.53 21884.1,6045.73 21916.2,6054.34C21934.7,6059.28 21954.3,6056.69 21970.9,6047.14C21987.4,6037.58 21999.5,6021.84 22004.5,6003.38C22013.1,5971.25 22023.3,5933.2 22031.9,5901.07ZM17142.2,5901.07C17147.1,5882.61 17144.5,5862.94 17135,5846.39C17125.4,5829.84 17109.7,5817.76 17091.2,5812.81C17059.1,5804.2 17021,5794.01 16988.9,5785.4C16970.4,5780.45 16950.8,5783.04 16934.2,5792.6C16917.7,5802.16 16905.6,5817.9 16900.6,5836.36C16892,5868.48 16881.8,5906.54 16873.2,5938.66C16868.3,5957.12 16870.9,5976.79 16880.4,5993.35C16890,6009.9 16905.7,6021.98 16924.2,6026.92C16956.3,6035.53 16994.4,6045.73 17026.5,6054.34C17045,6059.28 17064.6,6056.69 17081.2,6047.14C17097.7,6037.58 17109.8,6021.84 17114.8,6003.38C17123.4,5971.25 17133.6,5933.2 17142.2,5901.07ZM14697.3,5901.07C14702.3,5882.61 14699.7,5862.94 14690.1,5846.39C14680.6,5829.84 14664.8,5817.76 14646.4,5812.81C14614.2,5804.2 14576.2,5794.01 14544.1,5785.4C14525.6,5780.45 14505.9,5783.04 14489.4,5792.6C14472.8,5802.16 14460.7,5817.9 14455.8,5836.36C14447.2,5868.48 14437,5906.54 14428.4,5938.66C14423.4,5957.12 14426,5976.79 14435.6,5993.35C14445.1,6009.9 14460.9,6021.98 14479.3,6026.92C14511.5,6035.53 14549.5,6045.73 14581.6,6054.34C14600.1,6059.28 14619.8,6056.69 14636.3,6047.14C14652.9,6037.58 14665,6021.84 14669.9,6003.38C14678.5,5971.25 14688.7,5933.2 14697.3,5901.07ZM15919.7,5901.07C15924.7,5882.61 15922.1,5862.94 15912.5,5846.39C15903,5829.84 15887.2,5817.76 15868.8,5812.81C15836.7,5804.2 15798.6,5794.01 15766.5,5785.4C15748,5780.45 15728.3,5783.04 15711.8,5792.6C15695.2,5802.16 15683.2,5817.9 15678.2,5836.36C15669.6,5868.48 15659.4,5906.54 15650.8,5938.66C15645.9,5957.12 15648.4,5976.79 15658,5993.35C15667.6,6009.9 15683.3,6021.98 15701.8,6026.92C15733.9,6035.53 15771.9,6045.73 15804.1,6054.34C15822.5,6059.28 15842.2,6056.69 15858.8,6047.14C15875.3,6037.58 15887.4,6021.84 15892.3,6003.38C15900.9,5971.25 15911.1,5933.2 15919.7,5901.07ZM19587,5901.07C19592,5882.61 19589.4,5862.94 19579.8,5846.39C19570.3,5829.84 19554.5,5817.76 19536.1,5812.81C19503.9,5804.2 19465.9,5794.01 19433.8,5785.4C19415.3,5780.45 19395.6,5783.04 19379.1,5792.6C19362.5,5802.16 19350.4,5817.9 19345.5,5836.36C19336.9,5868.48 19326.7,5906.54 19318.1,5938.66C19313.1,5957.12 19315.7,5976.79 19325.3,5993.35C19334.8,6009.9 19350.6,6021.98 19369,6026.92C19401.2,6035.53 19439.2,6045.73 19471.3,6054.34C19489.8,6059.28 19509.5,6056.69 19526,6047.14C19542.6,6037.58 19554.7,6021.84 19559.6,6003.38C19568.2,5971.25 19578.4,5933.2 19587,5901.07ZM18364.6,5901.07C18369.5,5882.61 18367,5862.94 18357.4,5846.39C18347.8,5829.84 18332.1,5817.76 18313.6,5812.81C18281.5,5804.2 18243.5,5794.01 18211.3,5785.4C18192.9,5780.45 18173.2,5783.04 18156.6,5792.6C18140.1,5802.16 18128,5817.9 18123.1,5836.36C18114.5,5868.48 18104.3,5906.54 18095.7,5938.66C18090.7,5957.12 18093.3,5976.79 18102.9,5993.35C18112.4,6009.9 18128.2,6021.98 18146.6,6026.92C18178.7,6035.53 18216.8,6045.73 18248.9,6054.34C18267.4,6059.28 18287.1,6056.69 18303.6,6047.14C18320.2,6037.58 18332.2,6021.84 18337.2,6003.38C18345.8,5971.25 18356,5933.2 18364.6,5901.07ZM20809.4,5901.07C20814.4,5882.61 20811.8,5862.94 20802.2,5846.39C20792.7,5829.84 20777,5817.76 20758.5,5812.81C20726.4,5804.2 20688.3,5794.01 20656.2,5785.4C20637.7,5780.45 20618.1,5783.04 20601.5,5792.6C20585,5802.16 20572.9,5817.9 20567.9,5836.36C20559.3,5868.48 20549.1,5906.54 20540.5,5938.66C20535.6,5957.12 20538.2,5976.79 20547.7,5993.35C20557.3,6009.9 20573,6021.98 20591.5,6026.92C20623.6,6035.53 20661.7,6045.73 20693.8,6054.34C20712.2,6059.28 20731.9,6056.69 20748.5,6047.14C20765,6037.58 20777.1,6021.84 20782,6003.38C20790.6,5971.25 20800.8,5933.2 20809.4,5901.07ZM22870,5051.16C22866.9,5049.87 22863.7,5048.77 22860.3,5047.88C22825.2,5038.48 22783.6,5027.32 22748.5,5017.91C22706.9,5006.77 22664.2,5031.45 22653,5073.05C22642.8,5111.13 22630.5,5156.93 22620.7,5193.69C22616,5211.33 22618.4,5230.12 22627.6,5245.93C22636.7,5261.74 22651.7,5273.28 22669.4,5278.01C22669.4,5278.01 22669.4,5278.01 22669.4,5278.01C22687,5282.73 22702,5294.27 22711.2,5310.09C22720.3,5325.9 22722.8,5344.69 22718.1,5362.33C22708.2,5399.14 22695.9,5445.02 22685.7,5483.13C22674.6,5524.66 22631.9,5549.35 22590.4,5538.31C22463.8,5504.68 22209.6,5437.14 22082.8,5403.46C22062.8,5398.14 22045.7,5385.08 22035.3,5367.16C22024.9,5349.24 22022.1,5327.92 22027.5,5307.92C22079.4,5114.19 22216.9,4601.04 22268.8,4407.49C22274.1,4387.52 22287.2,4370.48 22305.1,4360.15C22323,4349.81 22344.3,4347 22364.2,4352.36L22870,4487.88L22870,5051.16ZM14257.7,2430.08L14420.4,2473.68C14462,2484.83 14486.7,2527.58 14475.5,2569.18C14430.5,2737.22 14322.2,3141.19 14277.2,3309.23C14266.1,3350.82 14290.8,3393.58 14332.3,3404.72C14463.8,3439.95 14733.7,3512.26 14865.2,3547.49C14906.8,3558.64 14931.4,3601.39 14920.3,3642.98C14873.1,3819.22 14755.8,4256.86 14708.6,4433.1C14697.4,4474.69 14654.7,4499.38 14613.1,4488.23L14257.7,4392.99L14257.7,3924.57L14295.6,3934.72C14314,3939.67 14333.7,3937.08 14350.2,3927.52C14366.8,3917.97 14378.9,3902.23 14383.8,3883.77C14392.4,3851.64 14402.6,3813.59 14411.2,3781.46C14416.2,3763 14413.6,3743.33 14404,3726.78C14394.5,3710.23 14378.7,3698.15 14360.3,3693.2C14328.2,3684.59 14290.1,3674.4 14258,3665.79L14257.7,3665.7L14257.7,2430.08ZM20532.5,2473.68C20574.1,2484.83 20598.8,2527.58 20587.6,2569.18C20542.6,2737.22 20434.4,3141.19 20389.3,3309.23C20378.2,3350.82 20402.9,3393.58 20444.5,3404.72C20576,3439.95 20845.8,3512.26 20977.3,3547.49C21018.9,3558.64 21043.6,3601.39 21032.4,3642.98C20985.2,3819.22 20867.9,4256.86 20820.7,4433.1C20809.6,4474.69 20766.8,4499.38 20725.2,4488.23C20548.2,4440.79 20107,4322.59 19930,4275.14C19888.4,4264 19863.7,4221.24 19874.8,4179.65L20184.5,3023.76C20195.7,2982.17 20171,2939.41 20129.4,2928.27C20094.3,2918.87 20052.7,2907.7 20017.6,2898.3C19976,2887.16 19933.2,2911.84 19922.1,2953.44C19911.9,2991.51 19899.6,3037.32 19889.8,3074.08C19885,3091.72 19887.5,3110.51 19896.6,3126.32C19905.8,3142.13 19920.8,3153.67 19938.4,3158.39C19938.4,3158.4 19938.4,3158.4 19938.4,3158.4C19956.1,3163.12 19971.1,3174.66 19980.2,3190.47C19989.4,3206.29 19991.9,3225.08 19987.1,3242.71C19977.3,3279.53 19965,3325.41 19954.8,3363.52C19943.6,3405.05 19901,3429.73 19859.4,3418.69C19732.8,3385.07 19478.6,3317.53 19351.8,3283.85C19331.8,3278.53 19314.8,3265.47 19304.4,3247.55C19294,3229.62 19291.2,3208.31 19296.6,3188.31C19348.5,2994.58 19486,2481.43 19537.8,2287.88C19543.2,2267.9 19556.2,2250.87 19574.2,2240.53C19592.1,2230.19 19613.3,2227.39 19633.3,2232.74C19826.7,2284.56 20339.1,2421.86 20532.5,2473.68ZM21754.9,2473.68C21796.5,2484.83 21821.2,2527.58 21810.1,2569.18C21765,2737.22 21656.8,3141.19 21611.8,3309.23C21600.6,3350.82 21625.3,3393.58 21666.9,3404.72C21798.4,3439.95 22068.3,3512.26 22199.7,3547.49C22241.3,3558.64 22266,3601.39 22254.9,3642.98C22207.6,3819.22 22090.4,4256.86 22043.1,4433.1C22032,4474.69 21989.2,4499.38 21947.7,4488.23C21770.6,4440.79 21329.5,4322.59 21152.4,4275.14C21110.8,4264 21086.1,4221.24 21097.2,4179.65L21407,3023.76C21418.1,2982.17 21393.4,2939.41 21351.8,2928.27C21316.7,2918.87 21275.1,2907.7 21240,2898.3C21198.4,2887.16 21155.7,2911.84 21144.5,2953.44C21134.3,2991.51 21122,3037.32 21112.2,3074.08C21107.5,3091.72 21109.9,3110.51 21119.1,3126.32C21128.2,3142.13 21143.2,3153.67 21160.9,3158.39C21160.9,3158.4 21160.9,3158.4 21160.9,3158.4C21178.5,3163.12 21193.5,3174.66 21202.7,3190.47C21211.8,3206.29 21214.3,3225.08 21209.6,3242.71C21199.7,3279.53 21187.4,3325.41 21177.2,3363.52C21166.1,3405.05 21123.4,3429.73 21081.9,3418.69C20955.3,3385.07 20701.1,3317.53 20574.3,3283.85C20554.3,3278.53 20537.2,3265.47 20526.8,3247.55C20516.4,3229.62 20513.6,3208.31 20519,3188.31C20570.9,2994.58 20708.4,2481.43 20760.3,2287.88C20765.6,2267.9 20778.7,2250.87 20796.6,2240.53C20814.5,2230.19 20835.8,2227.39 20855.7,2232.74C21049.1,2284.56 21561.5,2421.86 21754.9,2473.68ZM18087.7,2473.68C18129.3,2484.83 18153.9,2527.58 18142.8,2569.18C18097.8,2737.22 17989.5,3141.19 17944.5,3309.23C17933.3,3350.82 17958,3393.58 17999.6,3404.72C18131.1,3439.95 18401,3512.26 18532.4,3547.49C18574,3558.64 18598.7,3601.39 18587.6,3642.98C18540.4,3819.22 18423.1,4256.86 18375.9,4433.1C18364.7,4474.69 18322,4499.38 18280.4,4488.23C18103.3,4440.79 17662.2,4322.59 17485.1,4275.14C17443.5,4264 17418.8,4221.24 17430,4179.65L17739.7,3023.76C17750.8,2982.17 17726.1,2939.41 17684.6,2928.27C17649.5,2918.87 17607.8,2907.7 17572.7,2898.3C17531.1,2887.16 17488.4,2911.84 17477.2,2953.44C17467,2991.51 17454.8,3037.32 17444.9,3074.08C17440.2,3091.72 17442.7,3110.51 17451.8,3126.32C17460.9,3142.13 17475.9,3153.67 17493.6,3158.39C17493.6,3158.4 17493.6,3158.4 17493.6,3158.4C17511.2,3163.12 17526.3,3174.66 17535.4,3190.47C17544.5,3206.29 17547,3225.08 17542.3,3242.71C17532.4,3279.53 17520.1,3325.41 17509.9,3363.52C17498.8,3405.05 17456.1,3429.73 17414.6,3418.69C17288,3385.07 17033.8,3317.53 16907,3283.85C16887,3278.53 16869.9,3265.47 16859.5,3247.55C16849.2,3229.62 16846.3,3208.31 16851.7,3188.31C16903.6,2994.58 17041.1,2481.43 17093,2287.88C17098.3,2267.9 17111.4,2250.87 17129.3,2240.53C17147.2,2230.19 17168.5,2227.39 17188.5,2232.74C17381.9,2284.56 17894.3,2421.86 18087.7,2473.68ZM16865.2,2473.68C16906.8,2484.83 16931.5,2527.58 16920.4,2569.18C16875.3,2737.22 16767.1,3141.19 16722.1,3309.23C16710.9,3350.82 16735.6,3393.58 16777.2,3404.72C16908.7,3439.95 17178.5,3512.26 17310,3547.49C17351.6,3558.64 17376.3,3601.39 17365.1,3642.98C17317.9,3819.22 17200.7,4256.86 17153.4,4433.1C17142.3,4474.69 17099.5,4499.38 17057.9,4488.23C16880.9,4440.79 16439.7,4322.59 16262.7,4275.14C16221.1,4264 16196.4,4221.24 16207.5,4179.65L16517.3,3023.76C16528.4,2982.17 16503.7,2939.41 16462.1,2928.27C16427,2918.87 16385.4,2907.7 16350.3,2898.3C16308.7,2887.16 16265.9,2911.84 16254.8,2953.44C16244.6,2991.51 16232.3,3037.32 16222.5,3074.08C16217.8,3091.72 16220.2,3110.51 16229.4,3126.32C16238.5,3142.13 16253.5,3153.67 16271.2,3158.39C16271.2,3158.4 16271.2,3158.4 16271.2,3158.4C16288.8,3163.12 16303.8,3174.66 16313,3190.47C16322.1,3206.29 16324.6,3225.08 16319.8,3242.71C16310,3279.53 16297.7,3325.41 16287.5,3363.52C16276.3,3405.05 16233.7,3429.73 16192.1,3418.69C16065.6,3385.07 15811.4,3317.53 15684.6,3283.85C15664.6,3278.53 15647.5,3265.47 15637.1,3247.55C15626.7,3229.62 15623.9,3208.31 15629.3,3188.31C15681.2,2994.58 15818.7,2481.43 15870.5,2287.88C15875.9,2267.9 15889,2250.87 15906.9,2240.53C15924.8,2230.19 15946.1,2227.39 15966,2232.74C16159.4,2284.56 16671.8,2421.86 16865.2,2473.68ZM15642.8,2473.68C15684.4,2484.83 15709.1,2527.58 15697.9,2569.18C15652.9,2737.22 15544.7,3141.19 15499.6,3309.23C15488.5,3350.82 15513.2,3393.58 15554.8,3404.72C15686.2,3439.95 15956.1,3512.26 16087.6,3547.49C16129.2,3558.64 16153.9,3601.39 16142.7,3642.98C16095.5,3819.22 15978.2,4256.86 15931,4433.1C15919.9,4474.69 15877.1,4499.38 15835.5,4488.23C15658.4,4440.79 15217.3,4322.59 15040.2,4275.14C14998.7,4264 14974,4221.24 14985.1,4179.65L15294.8,3023.76C15306,2982.17 15281.3,2939.41 15239.7,2928.27C15204.6,2918.87 15163,2907.7 15127.9,2898.3C15086.3,2887.16 15043.5,2911.84 15032.4,2953.44C15022.2,2991.51 15009.9,3037.32 15000.1,3074.08C14995.3,3091.72 14997.8,3110.51 15006.9,3126.32C15016.1,3142.13 15031.1,3153.67 15048.7,3158.39C15048.7,3158.4 15048.7,3158.4 15048.7,3158.4C15066.4,3163.12 15081.4,3174.66 15090.5,3190.47C15099.7,3206.29 15102.1,3225.08 15097.4,3242.71C15087.6,3279.53 15075.3,3325.41 15065.1,3363.52C15053.9,3405.05 15011.3,3429.73 14969.7,3418.69C14843.1,3385.07 14588.9,3317.53 14462.1,3283.85C14442.1,3278.53 14425.1,3265.47 14414.7,3247.55C14404.3,3229.62 14401.5,3208.31 14406.8,3188.31C14458.8,2994.58 14596.3,2481.43 14648.1,2287.88C14653.5,2267.9 14666.5,2250.87 14684.4,2240.53C14702.4,2230.19 14723.6,2227.39 14743.6,2232.74C14937,2284.56 15449.4,2421.86 15642.8,2473.68ZM19310.1,2473.68C19351.7,2484.83 19376.4,2527.58 19365.2,2569.18C19320.2,2737.22 19211.9,3141.19 19166.9,3309.23C19155.8,3350.82 19180.5,3393.58 19222.1,3404.72C19353.5,3439.95 19623.4,3512.26 19754.9,3547.49C19796.5,3558.64 19821.1,3601.39 19810,3642.98C19762.8,3819.22 19645.5,4256.86 19598.3,4433.1C19587.1,4474.69 19544.4,4499.38 19502.8,4488.23C19325.7,4440.79 18884.6,4322.59 18707.5,4275.14C18665.9,4264 18641.2,4221.24 18652.4,4179.65L18962.1,3023.76C18973.3,2982.17 18948.6,2939.41 18907,2928.27C18871.9,2918.87 18830.2,2907.7 18795.2,2898.3C18753.6,2887.16 18710.8,2911.84 18699.7,2953.44C18689.5,2991.51 18677.2,3037.32 18667.3,3074.08C18662.6,3091.72 18665.1,3110.51 18674.2,3126.32C18683.3,3142.13 18698.4,3153.67 18716,3158.39C18716,3158.4 18716,3158.4 18716,3158.4C18733.7,3163.12 18748.7,3174.66 18757.8,3190.47C18767,3206.29 18769.4,3225.08 18764.7,3242.71C18754.8,3279.53 18742.5,3325.41 18732.3,3363.52C18721.2,3405.05 18678.6,3429.73 18637,3418.69C18510.4,3385.07 18256.2,3317.53 18129.4,3283.85C18109.4,3278.53 18092.3,3265.47 18082,3247.55C18071.6,3229.62 18068.8,3208.31 18074.1,3188.31C18126,2994.58 18263.5,2481.43 18315.4,2287.88C18320.8,2267.9 18333.8,2250.87 18351.7,2240.53C18369.6,2230.19 18390.9,2227.39 18410.9,2232.74C18604.3,2284.56 19116.7,2421.86 19310.1,2473.68ZM22870,4407.83L22374.8,4275.14C22333.2,4264 22308.5,4221.24 22319.7,4179.65L22629.4,3023.76C22640.5,2982.17 22615.9,2939.41 22574.3,2928.27C22539.2,2918.87 22497.5,2907.7 22462.4,2898.3C22420.8,2887.16 22378.1,2911.84 22366.9,2953.44C22356.7,2991.51 22344.5,3037.32 22334.6,3074.08C22329.9,3091.72 22332.4,3110.51 22341.5,3126.32C22350.6,3142.13 22365.7,3153.67 22383.3,3158.39C22383.3,3158.4 22383.3,3158.4 22383.3,3158.4C22400.9,3163.12 22416,3174.66 22425.1,3190.47C22434.2,3206.29 22436.7,3225.08 22432,3242.71C22422.1,3279.53 22409.8,3325.41 22399.6,3363.52C22388.5,3405.05 22345.8,3429.73 22304.3,3418.69C22177.7,3385.07 21923.5,3317.53 21796.7,3283.85C21776.7,3278.53 21759.6,3265.47 21749.2,3247.55C21738.9,3229.62 21736,3208.31 21741.4,3188.31C21793.3,2994.58 21930.8,2481.43 21982.7,2287.88C21988,2267.9 22001.1,2250.87 22019,2240.53C22036.9,2230.19 22058.2,2227.39 22078.2,2232.74L22870,2444.92L22870,3175.54L22834.2,3309.23C22824.9,3343.89 22840.5,3379.35 22870,3396.66L22870,3680.54L22815,3665.79C22796.5,3660.84 22776.8,3663.43 22760.3,3672.99C22743.7,3682.54 22731.7,3698.28 22726.7,3716.74C22718.1,3748.87 22707.9,3786.92 22699.3,3819.05C22694.3,3837.51 22696.9,3857.18 22706.5,3873.73C22716,3890.29 22731.8,3902.36 22750.2,3907.31C22782.4,3915.92 22820.4,3926.11 22852.6,3934.72C22858.3,3936.26 22864.2,3937.07 22870,3937.17L22870,4407.83ZM18078.5,3781.46C18083.5,3763 18080.9,3743.33 18071.3,3726.78C18061.8,3710.23 18046,3698.15 18027.6,3693.2C17995.4,3684.59 17957.4,3674.4 17925.3,3665.79C17906.8,3660.84 17887.1,3663.43 17870.6,3672.99C17854,3682.54 17841.9,3698.28 17837,3716.74C17828.4,3748.87 17818.2,3786.92 17809.6,3819.05C17804.6,3837.51 17807.2,3857.18 17816.8,3873.73C17826.3,3890.29 17842.1,3902.36 17860.5,3907.31C17892.7,3915.92 17930.7,3926.11 17962.8,3934.72C17981.3,3939.67 18001,3937.08 18017.5,3927.52C18034.1,3917.97 18046.2,3902.23 18051.1,3883.77C18059.7,3851.64 18069.9,3813.59 18078.5,3781.46ZM21745.8,3781.46C21750.7,3763 21748.2,3743.33 21738.6,3726.78C21729,3710.23 21713.3,3698.15 21694.8,3693.2C21662.7,3684.59 21624.7,3674.4 21592.5,3665.79C21574.1,3660.84 21554.4,3663.43 21537.9,3672.99C21521.3,3682.54 21509.2,3698.28 21504.3,3716.74C21495.7,3748.87 21485.5,3786.92 21476.9,3819.05C21471.9,3837.51 21474.5,3857.18 21484.1,3873.73C21493.6,3890.29 21509.4,3902.36 21527.8,3907.31C21559.9,3915.92 21598,3926.11 21630.1,3934.72C21648.6,3939.67 21668.3,3937.08 21684.8,3927.52C21701.4,3917.97 21713.4,3902.23 21718.4,3883.77C21727,3851.64 21737.2,3813.59 21745.8,3781.46ZM16856.1,3781.46C16861,3763 16858.4,3743.33 16848.9,3726.78C16839.3,3710.23 16823.6,3698.15 16805.1,3693.2C16773,3684.59 16735,3674.4 16702.8,3665.79C16684.4,3660.84 16664.7,3663.43 16648.1,3672.99C16631.6,3682.54 16619.5,3698.28 16614.6,3716.74C16606,3748.87 16595.8,3786.92 16587.2,3819.05C16582.2,3837.51 16584.8,3857.18 16594.4,3873.73C16603.9,3890.29 16619.7,3902.36 16638.1,3907.31C16670.2,3915.92 16708.3,3926.11 16740.4,3934.72C16758.9,3939.67 16778.6,3937.08 16795.1,3927.52C16811.7,3917.97 16823.7,3902.23 16828.7,3883.77C16837.3,3851.64 16847.5,3813.59 16856.1,3781.46ZM20523.4,3781.46C20528.3,3763 20525.7,3743.33 20516.2,3726.78C20506.6,3710.23 20490.9,3698.15 20472.4,3693.2C20440.3,3684.59 20402.2,3674.4 20370.1,3665.79C20351.6,3660.84 20332,3663.43 20315.4,3672.99C20298.9,3682.54 20286.8,3698.28 20281.9,3716.74C20273.2,3748.87 20263,3786.92 20254.4,3819.05C20249.5,3837.51 20252.1,3857.18 20261.6,3873.73C20271.2,3890.29 20286.9,3902.36 20305.4,3907.31C20337.5,3915.92 20375.6,3926.11 20407.7,3934.72C20426.2,3939.67 20445.8,3937.08 20462.4,3927.52C20478.9,3917.97 20491,3902.23 20496,3883.77C20504.6,3851.64 20514.8,3813.59 20523.4,3781.46ZM19300.9,3781.46C19305.9,3763 19303.3,3743.33 19293.7,3726.78C19284.2,3710.23 19268.5,3698.15 19250,3693.2C19217.9,3684.59 19179.8,3674.4 19147.7,3665.79C19129.2,3660.84 19109.6,3663.43 19093,3672.99C19076.4,3682.54 19064.4,3698.28 19059.4,3716.74C19050.8,3748.87 19040.6,3786.92 19032,3819.05C19027.1,3837.51 19029.7,3857.18 19039.2,3873.73C19048.8,3890.29 19064.5,3902.36 19083,3907.31C19115.1,3915.92 19153.1,3926.11 19185.3,3934.72C19203.7,3939.67 19223.4,3937.08 19240,3927.52C19256.5,3917.97 19268.6,3902.23 19273.5,3883.77C19282.1,3851.64 19292.3,3813.59 19300.9,3781.46ZM15633.7,3781.46C15638.6,3763 15636,3743.33 15626.5,3726.78C15616.9,3710.23 15601.2,3698.15 15582.7,3693.2C15550.6,3684.59 15512.5,3674.4 15480.4,3665.79C15461.9,3660.84 15442.3,3663.43 15425.7,3672.99C15409.2,3682.54 15397.1,3698.28 15392.1,3716.74C15383.5,3748.87 15373.3,3786.92 15364.7,3819.05C15359.8,3837.51 15362.4,3857.18 15371.9,3873.73C15381.5,3890.29 15397.2,3902.36 15415.7,3907.31C15447.8,3915.92 15485.9,3926.11 15518,3934.72C15536.5,3939.67 15556.1,3937.08 15572.7,3927.52C15589.2,3917.97 15601.3,3902.23 15606.3,3883.77C15614.9,3851.64 15625.1,3813.59 15633.7,3781.46ZM20509.2,1377.33L20717.9,1433.26C20759.5,1444.4 20784.2,1487.16 20773,1528.75C20725.8,1704.99 20608.6,2142.63 20561.3,2318.87C20550.2,2360.46 20507.4,2385.15 20465.8,2374C20288.8,2326.56 19847.6,2208.36 19670.6,2160.91C19629,2149.77 19604.3,2107.01 19615.4,2065.42L19799.8,1377.33L20509.2,1377.33ZM18064.3,1377.33L18273.1,1433.26C18314.6,1444.4 18339.3,1487.16 18328.2,1528.75C18281,1704.99 18163.7,2142.63 18116.5,2318.87C18105.3,2360.46 18062.6,2385.15 18021,2374C17843.9,2326.56 17402.8,2208.36 17225.7,2160.91C17184.1,2149.77 17159.4,2107.01 17170.6,2065.42L17355,1377.33L18064.3,1377.33ZM21731.6,1377.33L21940.3,1433.26C21981.9,1444.4 22006.6,1487.16 21995.5,1528.75C21948.2,1704.99 21831,2142.63 21783.8,2318.87C21772.6,2360.46 21729.9,2385.15 21688.3,2374C21511.2,2326.56 21070.1,2208.36 20893,2160.91C20851.4,2149.77 20826.7,2107.01 20837.9,2065.42L21022.2,1377.33L21731.6,1377.33ZM19286.7,1377.33L19495.5,1433.26C19537.1,1444.4 19561.8,1487.16 19550.6,1528.75C19503.4,1704.99 19386.1,2142.63 19338.9,2318.87C19327.8,2360.46 19285,2385.15 19243.4,2374C19066.3,2326.56 18625.2,2208.36 18448.1,2160.91C18406.5,2149.77 18381.9,2107.01 18393,2065.42L18577.4,1377.33L19286.7,1377.33ZM16841.9,1377.33L17050.6,1433.26C17092.2,1444.4 17116.9,1487.16 17105.8,1528.75C17058.5,1704.99 16941.3,2142.63 16894,2318.87C16882.9,2360.46 16840.1,2385.15 16798.6,2374C16621.5,2326.56 16180.4,2208.36 16003.3,2160.91C15961.7,2149.77 15937,2107.01 15948.1,2065.42L16132.5,1377.33L16841.9,1377.33ZM14397,1377.33L14605.8,1433.26C14647.4,1444.4 14672,1487.16 14660.9,1528.75C14613.7,1704.99 14496.4,2142.63 14449.2,2318.87C14438,2360.46 14395.3,2385.15 14353.7,2374L14257.7,2348.27L14257.7,1377.33L14397,1377.33ZM15619.5,1377.33L15828.2,1433.26C15869.8,1444.4 15894.5,1487.16 15883.3,1528.75C15836.1,1704.99 15718.8,2142.63 15671.6,2318.87C15660.5,2360.46 15617.7,2385.15 15576.1,2374C15399.1,2326.56 14957.9,2208.36 14780.9,2160.91C14739.3,2149.77 14714.6,2107.01 14725.7,2065.42L14910.1,1377.33L15619.5,1377.33ZM22244.7,1377.33L22870,1377.33L22870,2363.11L22115.4,2160.91C22073.8,2149.77 22049.1,2107.01 22060.3,2065.42L22244.7,1377.33ZM22708.8,1667.23C22713.8,1648.77 22711.2,1629.1 22701.6,1612.55C22692.1,1596 22676.3,1583.92 22657.9,1578.97C22625.8,1570.36 22587.7,1560.17 22555.6,1551.56C22537.1,1546.61 22517.4,1549.2 22500.9,1558.76C22484.3,1568.31 22472.3,1584.05 22467.3,1602.52C22458.7,1634.64 22448.5,1672.69 22439.9,1704.82C22435,1723.28 22437.5,1742.95 22447.1,1759.5C22456.7,1776.06 22472.4,1788.13 22490.9,1793.08C22523,1801.69 22561,1811.88 22593.2,1820.49C22611.6,1825.44 22631.3,1822.85 22647.8,1813.29C22664.4,1803.74 22676.5,1788 22681.4,1769.54C22690,1737.41 22700.2,1699.36 22708.8,1667.23ZM21486.4,1667.23C21491.4,1648.77 21488.8,1629.1 21479.2,1612.55C21469.7,1596 21453.9,1583.92 21435.5,1578.97C21403.3,1570.36 21365.3,1560.17 21333.1,1551.56C21314.7,1546.61 21295,1549.2 21278.5,1558.76C21261.9,1568.31 21249.8,1584.05 21244.9,1602.52C21236.3,1634.64 21226.1,1672.69 21217.5,1704.82C21212.5,1723.28 21215.1,1742.95 21224.7,1759.5C21234.2,1776.06 21250,1788.13 21268.4,1793.08C21300.6,1801.69 21338.6,1811.88 21370.7,1820.49C21389.2,1825.44 21408.9,1822.85 21425.4,1813.29C21442,1803.74 21454.1,1788 21459,1769.54C21467.6,1737.41 21477.8,1699.36 21486.4,1667.23ZM20264,1667.23C20268.9,1648.77 20266.3,1629.1 20256.8,1612.55C20247.2,1596 20231.5,1583.92 20213,1578.97C20180.9,1570.36 20142.8,1560.17 20110.7,1551.56C20092.3,1546.61 20072.6,1549.2 20056,1558.76C20039.5,1568.31 20027.4,1584.05 20022.5,1602.52C20013.9,1634.64 20003.7,1672.69 19995,1704.82C19990.1,1723.28 19992.7,1742.95 20002.2,1759.5C20011.8,1776.06 20027.5,1788.13 20046,1793.08C20078.1,1801.69 20116.2,1811.88 20148.3,1820.49C20166.8,1825.44 20186.4,1822.85 20203,1813.29C20219.5,1803.74 20231.6,1788 20236.6,1769.54C20245.2,1737.41 20255.4,1699.36 20264,1667.23ZM19041.6,1667.23C19046.5,1648.77 19043.9,1629.1 19034.4,1612.55C19024.8,1596 19009.1,1583.92 18990.6,1578.97C18958.5,1570.36 18920.4,1560.17 18888.3,1551.56C18869.8,1546.61 18850.2,1549.2 18833.6,1558.76C18817.1,1568.31 18805,1584.05 18800,1602.52C18791.4,1634.64 18781.2,1672.69 18772.6,1704.82C18767.7,1723.28 18770.3,1742.95 18779.8,1759.5C18789.4,1776.06 18805.1,1788.13 18823.6,1793.08C18855.7,1801.69 18893.8,1811.88 18925.9,1820.49C18944.3,1825.44 18964,1822.85 18980.6,1813.29C18997.1,1803.74 19009.2,1788 19014.1,1769.54C19022.8,1737.41 19032.9,1699.36 19041.6,1667.23ZM17819.1,1667.23C17824.1,1648.77 17821.5,1629.1 17811.9,1612.55C17802.4,1596 17786.6,1583.92 17768.2,1578.97C17736,1570.36 17698,1560.17 17665.9,1551.56C17647.4,1546.61 17627.7,1549.2 17611.2,1558.76C17594.6,1568.31 17582.6,1584.05 17577.6,1602.52C17569,1634.64 17558.8,1672.69 17550.2,1704.82C17545.2,1723.28 17547.8,1742.95 17557.4,1759.5C17567,1776.06 17582.7,1788.13 17601.2,1793.08C17633.3,1801.69 17671.3,1811.88 17703.5,1820.49C17721.9,1825.44 17741.6,1822.85 17758.1,1813.29C17774.7,1803.74 17786.8,1788 17791.7,1769.54C17800.3,1737.41 17810.5,1699.36 17819.1,1667.23ZM15374.3,1667.23C15379.2,1648.77 15376.6,1629.1 15367.1,1612.55C15357.5,1596 15341.8,1583.92 15323.3,1578.97C15291.2,1570.36 15253.1,1560.17 15221,1551.56C15202.6,1546.61 15182.9,1549.2 15166.3,1558.76C15149.8,1568.31 15137.7,1584.05 15132.8,1602.52C15124.1,1634.64 15114,1672.69 15105.3,1704.82C15100.4,1723.28 15103,1742.95 15112.5,1759.5C15122.1,1776.06 15137.8,1788.13 15156.3,1793.08C15188.4,1801.69 15226.5,1811.88 15258.6,1820.49C15277.1,1825.44 15296.7,1822.85 15313.3,1813.29C15329.8,1803.74 15341.9,1788 15346.9,1769.54C15355.5,1737.41 15365.7,1699.36 15374.3,1667.23ZM16596.7,1667.23C16601.6,1648.77 16599.1,1629.1 16589.5,1612.55C16579.9,1596 16564.2,1583.92 16545.7,1578.97C16513.6,1570.36 16475.6,1560.17 16443.4,1551.56C16425,1546.61 16405.3,1549.2 16388.8,1558.76C16372.2,1568.31 16360.1,1584.05 16355.2,1602.52C16346.6,1634.64 16336.4,1672.69 16327.8,1704.82C16322.8,1723.28 16325.4,1742.95 16335,1759.5C16344.5,1776.06 16360.3,1788.13 16378.7,1793.08C16410.9,1801.69 16448.9,1811.88 16481,1820.49C16499.5,1825.44 16519.2,1822.85 16535.7,1813.29C16552.3,1803.74 16564.3,1788 16569.3,1769.54C16577.9,1737.41 16588.1,1699.36 16596.7,1667.23Z" style="fill:rgb(39,22,109);"/>
            </g>
        </g>
    </g>
</svg>
